<svg width="205" height="205" viewBox="0 0 205 205" fill="none" xmlns="http://www.w3.org/2000/svg">
<path fill-rule="evenodd" clip-rule="evenodd" d="M3.3519 13.729C4.61402 15.3084 5.6166 16.5422 6.5717 17.6573C4.82582 20.2373 3.35516 23.0008 2.21711 25.904C-0.948853 33.9774 0.367489 42.8951 3.76937 50.6611C7.14879 58.376 11.7382 65.2435 16.7891 71.7497C12.5261 73.8485 7.82705 75.8174 3.30439 75.1643L1.92913 75.458L1.12744 76.5159L1.3553 77.8426L2.45409 78.6947C2.45409 78.6947 4.05792 79.1053 5.15571 79.2069C10.4659 79.6986 15.7101 78.6094 20.7914 76.7381C22.7895 79.1604 24.8269 81.5486 26.8618 83.9297C40.4879 99.8739 57.6608 114.15 74.4518 127.874C67.8691 129.437 62.343 133.821 59.114 139.591C58.4374 140.801 57.84 142.045 57.3206 143.316C56.7529 143.23 56.2301 143.158 55.7602 143.104C51.753 142.639 48.4524 142.645 44.362 142.652C43.8201 142.653 43.2644 142.654 42.6913 142.653L41.1289 142.675L39.0862 143.338L38.0678 144.871L38.6567 146.617L40.4745 147.746C46.1522 149.217 50.3313 150.244 54.7528 150.796C54.8919 150.813 55.036 150.83 55.1851 150.847C54.0567 157.544 54.816 164.469 57.3009 170.487C56.8753 170.832 56.4513 171.179 56.0288 171.529L54.3656 172.977C54.0746 173.252 53.8321 173.48 53.6221 173.678C52.5838 174.654 52.3393 174.884 50.9486 176.316C49.2829 178.031 47.0817 180.459 44.7762 183.028L43.6914 184.267L42.8685 186.137L43.3407 187.819L44.9776 188.479L46.9233 187.856C52.079 184.219 55.7429 181.57 59.2669 178.421C59.7476 177.991 60.2904 177.483 60.8855 176.908C62.3339 178.887 64.0271 180.669 65.9558 182.189C68.6835 184.34 71.6643 185.914 74.8055 186.967C72.6945 190.349 70.9829 193.492 68.9479 197.229C68.6215 197.829 68.2867 198.444 67.9406 199.077L67.0183 200.806L66.6893 202.698L67.5475 204.136L69.232 204.362L70.8497 203.313C73.0931 200.533 74.8524 198.323 76.884 195.66C78.7116 193.265 80.5108 190.727 82.0292 188.473C90.5159 189.26 99.5969 186.918 107.733 182.347L109.657 179.941L109.376 176.923L107.01 175.02L103.945 175.326C98.8401 178.007 92.9707 179.828 87.253 180.021C87.986 178.761 88.5541 177.755 89.4481 176.172C89.8055 175.539 90.2149 174.814 90.7078 173.944L92.8193 170.141L92.9027 169.99L93.1722 168.228L92.2657 166.823L90.5936 166.54C89.9798 166.921 89.0665 167.491 89.0665 167.491C85.9154 171.516 82.6689 175.756 80.0594 179.312C78.4893 178.923 76.9651 178.37 75.5089 177.633C72.0358 175.878 69.4187 173.191 67.6107 169.993C68.9308 168.584 70.3097 167.09 71.709 165.558L71.8075 165.449L72.5393 163.701L72.0053 162.036L70.3923 161.316L68.5689 161.867C67.49 162.659 66.4119 163.455 65.337 164.257C64.2872 160.121 64.2506 155.627 65.1579 151.393C67.1929 151.447 69.3611 151.483 71.5805 151.505L71.7189 151.506L73.6127 150.858L74.5754 149.285L74.051 147.513L72.3734 146.434C70.7174 146.042 69.0264 145.653 67.3679 145.285C71.7258 137.667 80.8722 135.641 88.0613 138.899C90.9391 140.226 94.0203 139.995 95.5516 137.69C97.555 134.674 94.4434 130.961 94.4434 130.961C71.2201 113.589 47.1245 95.5559 27.8166 73.6736C29.685 72.7492 31.5227 71.7652 33.3246 70.7659C35.4152 69.6072 37.4634 68.3701 39.4644 67.0606C41.2727 65.8769 43.7118 64.1397 43.7118 64.1397C45.693 62.672 47.6372 61.1543 49.5278 59.571L49.8143 59.3263C55.9378 54.0257 60.9892 48.386 65.2601 42.0957C67.3133 39.0723 69.2307 35.8801 70.9629 32.561C75.8286 36.5841 80.4859 40.8969 84.8479 45.5231C85.4882 46.2057 86.1294 46.8887 86.7711 47.5723C101.845 63.6297 117.228 80.0153 128.707 98.8465C130.712 102.173 133.964 103.967 136.905 102.369C139.629 100.887 139.753 96.8466 139.753 96.8466C139.039 90.972 140.221 84.6121 143.268 79.3872C146.551 73.7569 152.164 70.6045 158.285 69.6686C157.826 72.5203 157.37 75.6433 156.935 78.8557C156.932 78.8815 156.929 78.9071 156.925 78.9327C156.922 78.9611 156.918 78.9894 156.914 79.0178L157.461 81.7652L159.43 83.3625L161.966 82.931L163.828 80.7973C165.332 77.1799 166.84 73.3972 168.108 69.9952C171.538 70.734 174.828 72.1194 177.663 74.1057C176.173 75.809 174.649 77.6064 173.034 79.5397L172.945 79.647L171.983 82.0887L172.674 84.3229L174.837 85.2582L177.374 84.5511C179.279 83.2815 181.226 81.9525 183.065 80.6551C184.917 84.8912 185.09 89.9848 183.92 94.5854C183.784 95.1181 183.635 95.6459 183.472 96.1696C180.377 96.2051 179.477 96.2415 177.107 96.3373C176.548 96.3599 175.907 96.3858 175.137 96.4158L171.806 96.5801L171.672 96.5869C171.164 96.7986 170.656 97.0109 170.147 97.2233L170.107 97.2399L169.388 98.6426L169.941 100.126L171.432 100.923C174.63 101.394 177.954 101.844 180.905 102.191C176.556 110.139 169.043 116.512 160.515 120.348L158.383 122.576L158.39 125.611C158.446 125.742 160.577 127.722 160.577 127.722L163.655 127.687C175.226 122.835 185.076 113.474 190.2 102.879C193.081 102.902 195.717 102.745 198.824 102.56C199.345 102.529 199.88 102.497 200.431 102.466L201.931 102.36L203.631 101.688L204.401 100.312L203.794 98.8522L202.181 98.0233C199.486 97.5765 197.353 97.2413 194.814 96.9086C194.084 96.8126 193.346 96.7262 192.611 96.6493C194.309 90.8262 194.507 84.832 192.752 79.16C192.27 77.6018 191.63 76.1173 190.851 74.7133C190.933 74.6401 191.014 74.5676 191.092 74.4968C194.079 71.7768 196.171 69.1956 198.753 66.0102C199.096 65.5874 199.447 65.1539 199.81 64.7081L200.775 63.4808L201.847 60.8616L201.253 58.6169L199.069 57.7763L196.352 58.569C192.829 60.7847 189.823 62.7757 186.018 65.6756C185.903 65.7723 185.787 65.8691 185.67 65.967C185.269 66.3023 184.851 66.651 184.392 67.0548C180.669 63.9809 176.107 61.7061 171.209 60.3868C172.205 56.2639 172.648 52.6195 173.184 48.2185C173.262 47.5765 173.342 46.9184 173.426 46.2403L173.626 44.3895L173.08 41.4217L171.187 39.7557L171.167 39.7507C170.339 39.9281 169.51 40.1062 168.682 40.2835L166.713 42.6007C163.907 48.9202 161.902 53.4933 160.395 58.9814C160.387 59.0133 160.377 59.0461 160.369 59.0782C156.495 59.1742 152.636 59.88 149.008 61.2639C140.339 64.5694 133.798 72.4235 130.835 81.2643C130.444 82.4666 130.076 81.0501 130.076 81.0501C127.171 77.0511 124.158 73.1304 121.065 69.2753C107.622 52.5216 93.0796 35.0792 75.7723 21.6571C77.3488 17.3009 78.5628 12.8198 79.3198 8.28999L79.0619 6.90035L78.0279 6.08907L78.0085 6.08536L76.7077 6.32L75.8048 7.43459C74.494 11.1548 72.9223 14.7739 71.1185 18.2792C66.8427 15.3375 62.4442 12.5802 57.9353 10.0151C57.7726 9.92237 57.5067 9.77674 57.2931 9.65977C57.2256 9.62279 57.1633 9.58866 57.1111 9.55999C52.4089 6.98363 47.6232 4.52086 42.654 2.53287C32.6307 -1.47789 21.576 2.48845 13.8404 9.3451C13.5797 9.57851 13.3216 9.81491 13.0667 10.055C11.7425 9.37149 10.2392 8.64017 10.2392 8.64017C8.44101 7.81193 6.75622 7.45307 5.03461 7.19615C4.2796 7.57018 3.52516 7.94496 2.7708 8.31969L2.71351 8.34815L2.15236 10.8867L3.3519 13.729ZM20.8882 15.7307C20.3229 15.0941 19.944 14.6693 19.4533 14.2142C23.6039 11.2827 28.3908 9.4913 33.2528 9.74625C39.169 10.0573 45.3313 14.2843 49.7962 17.347C50.7497 18.001 51.6258 18.602 52.4055 19.1004C56.7881 21.9023 61.0993 24.8863 65.2892 28.0668C59.1694 37.0536 51.3265 45.4052 42.7028 53.4029C36.3398 59.3027 30.0326 64.2701 23.2322 68.2911C21.782 66.5252 20.3641 64.734 18.9816 62.9164C13.2897 55.4343 6.9683 46.3931 6.52574 36.6543C6.32381 32.2166 8.16065 27.1166 11.2876 22.5561L11.4039 22.6591C12.6706 23.5956 13.929 24.3886 13.929 24.3886C16.5659 25.9358 16.931 26.193 17.1682 26.3601C17.4138 26.5331 17.5223 26.6095 19.8739 27.9216L22.9643 28.7558L25.3788 27.9734C25.4725 27.8798 26.1456 25.558 26.1456 25.558L25.3051 22.4612L24.6463 21.2579C23.3347 18.9412 20.8882 15.7307 20.8882 15.7307Z" fill="white"/>
</svg>
